<svg xmlns="http://www.w3.org/2000/svg" width="28" height="28" fill="none" viewBox="0 0 28 28"><path fill="#ececec" d="M14.06 1.381c6.024 0 11.067 4.282 12.248 9.961h1.326C26.441 4.932 20.817.078 14.06.078S1.677 4.931.484 11.342H1.81c1.181-5.679 6.224-9.96 12.25-9.96M14.059 26.398c-5.984 0-11-4.222-12.223-9.843H.504C1.744 22.908 7.343 27.7 14.059 27.7s12.314-4.793 13.554-11.146h-1.331c-1.223 5.62-6.24 9.843-12.223 9.843"/><path fill="#ececec" d="M8.678 5.17c4.105-2.701 9.46-2.046 12.811 1.294l.903-.595c-3.687-3.833-9.695-4.616-14.298-1.586-4.604 3.03-6.26 8.859-4.197 13.762l.903-.595c-1.742-4.398-.227-9.577 3.878-12.28M19.895 22.215c-4.076 2.684-9.388 2.057-12.74-1.224l-.909.597c3.695 3.772 9.658 4.527 14.233 1.515s6.24-8.788 4.236-13.673l-.908.598c1.69 4.377.164 9.504-3.912 12.187" opacity=".5"/></svg>