<svg xmlns="http://www.w3.org/2000/svg" width="22" height="21" fill="none" viewBox="0 0 22 21"><path fill="#ececec" d="M21.858 14.668H11.736V.496h10.122z"/><path fill="#191d22" d="M21.3 1.04H.716v19.483H21.3z"/><path fill="#ececec" d="M12.626 5.786v.626a.3.3 0 0 1-.066.065c-.065.031-.766.032-.871.015a.24.24 0 0 1-.15-.08v-.626c-.085-.095-.198-.06-.307-.045-.497.071-1.091.306-1.527.55-.111.062-.558.321-.572.42-.03.201.472.435.425.616-.012.046-.613.648-.655.667-.025.011-.046.021-.074.011-.183-.042-.42-.528-.617-.407-.056.034-.318.464-.368.554-.3.533-.531 1.165-.555 1.778.006.022.074.056.083.056h.593c.025 0 .075.08.082.116.017.092.01.847-.017.904a.3.3 0 0 1-.065.067h-.593c-.01 0-.077.033-.083.055.022.598.256 1.234.544 1.757.05.093.32.54.379.576.197.121.434-.366.617-.408.028-.009.049 0 .074.011.042.02.643.622.655.667.047.181-.458.42-.426.618.016.096.544.401.66.463.51.271 1.112.488 1.69.511.023-.007.057-.074.057-.083v-.593c0-.025.08-.075.116-.082.092-.017.847-.01.905.016.015.008.066.06.066.066v.593c0 .013.064.067.089.075.317.097 1.407-.363 1.723-.536.115-.063.579-.33.594-.43.027-.186-.372-.38-.426-.566-.01-.028 0-.049.012-.074.018-.04.585-.605.625-.629.23-.136.432.437.659.4.083-.014.34-.43.397-.529.239-.415.514-1.096.57-1.57.007-.052.05-.308-.043-.308H16.2a.3.3 0 0 1-.066-.067c-.03-.064-.031-.89 0-.955.075-.155.653.018.744-.12.09-.14-.233-1.098-.317-1.295-.07-.163-.51-1.012-.631-1.05-.206-.063-.4.363-.594.42-.028.01-.05 0-.074-.012-.057-.026-.648-.646-.653-.698.025-.204.455-.395.423-.587-.014-.09-.466-.358-.572-.418-.433-.243-1.034-.485-1.527-.549-.11-.014-.22-.053-.307.044m-.863-1.06c4.687-.278 7.748 4.94 5.225 8.913-2.262 3.561-7.507 3.595-9.785.04-2.412-3.764.127-8.692 4.56-8.954"/><path fill="#ececec" d="M12.581 11.03a.71.71 0 0 1-.911.062c-.259-.19-.31-.471-.279-.774L9.563 8.357c-.246-.281.071-.583.345-.345L11.87 9.84c.123.004.196-.025.329-.003.554.089.785.792.382 1.192M7.849 4.65 7.75 6.132l-1.482.099c.028-.175.438-.366.391-.536-.046-.164-.856-.768-.952-.996l.639-.64.999.983c.105.04.446-.458.504-.392M2.658 3.47a.56.56 0 0 1-.302-.08.53.53 0 0 1-.193-.22.7.7 0 0 1-.067-.322q0-.183.069-.324a.53.53 0 0 1 .194-.22.54.54 0 0 1 .296-.08q.138 0 .245.051a.427.427 0 0 1 .253.354h-.228a.27.27 0 0 0-.087-.146.25.25 0 0 0-.179-.061.3.3 0 0 0-.172.052.33.33 0 0 0-.113.146.6.6 0 0 0-.041.223q0 .13.04.227a.34.34 0 0 0 .113.149q.074.052.173.052a.3.3 0 0 0 .121-.024.25.25 0 0 0 .092-.072.3.3 0 0 0 .053-.111h.228a.438.438 0 0 1-.246.353.55.55 0 0 1-.25.053m.746-.025V2.24h.227v.191h.012a.3.3 0 0 1 .116-.153.33.33 0 0 1 .19-.056 1 1 0 0 1 .1.005v.225l-.05-.009a1 1 0 0 0-.072-.005.3.3 0 0 0-.149.035.26.26 0 0 0-.14.236v.736zm1.612-.5V2.24h.235v1.205h-.23v-.208h-.013a.4.4 0 0 1-.134.16.4.4 0 0 1-.226.064.358.358 0 0 1-.345-.204.56.56 0 0 1-.051-.25V2.24h.235v.738q0 .124.068.197a.23.23 0 0 0 .177.073.29.29 0 0 0 .24-.133.3.3 0 0 0 .044-.17m.55.5V2.24h.235v1.205zm.119-1.391a.15.15 0 0 1-.105-.041.13.13 0 0 1-.043-.099q0-.058.043-.099a.15.15 0 0 1 .105-.041q.06 0 .104.041a.13.13 0 0 1 .044.1.13.13 0 0 1-.044.098.15.15 0 0 1-.104.04m1.335.48-.213.038a.3.3 0 0 0-.042-.078.2.2 0 0 0-.077-.06.3.3 0 0 0-.122-.024.3.3 0 0 0-.166.045q-.066.044-.067.114 0 .06.045.097t.144.06l.192.044q.166.04.248.119a.28.28 0 0 1 .082.208q0 .108-.063.193-.063.084-.174.132a.6.6 0 0 1-.256.048.6.6 0 0 1-.33-.087.37.37 0 0 1-.158-.247l.227-.034q.021.088.087.134a.3.3 0 0 0 .172.044.3.3 0 0 0 .185-.047q.069-.049.069-.119a.12.12 0 0 0-.043-.095.3.3 0 0 0-.128-.058l-.204-.045a.5.5 0 0 1-.25-.122.3.3 0 0 1-.08-.213q0-.106.06-.187a.4.4 0 0 1 .165-.124q.105-.045.241-.046a.5.5 0 0 1 .308.085.4.4 0 0 1 .148.225m.801.936a.6.6 0 0 1-.307-.076.5.5 0 0 1-.198-.216.7.7 0 0 1-.069-.328q0-.185.07-.326a.54.54 0 0 1 .194-.22.59.59 0 0 1 .491-.046.48.48 0 0 1 .292.293.8.8 0 0 1 .044.279v.083H7.38v-.176h.728a.35.35 0 0 0-.037-.164.28.28 0 0 0-.265-.155.3.3 0 0 0-.172.049.33.33 0 0 0-.113.125.4.4 0 0 0-.04.167v.138q0 .12.043.205t.12.13q.076.045.18.044a.4.4 0 0 0 .121-.019.252.252 0 0 0 .156-.153l.222.04a.4.4 0 0 1-.095.172.5.5 0 0 1-.172.114.6.6 0 0 1-.235.04m1.87 0a.56.56 0 0 1-.301-.08.53.53 0 0 1-.193-.22.7.7 0 0 1-.068-.322q0-.183.07-.324a.53.53 0 0 1 .194-.22.54.54 0 0 1 .296-.08q.137 0 .245.051t.173.141q.067.092.08.213h-.229a.27.27 0 0 0-.086-.146.25.25 0 0 0-.18-.061.3.3 0 0 0-.171.052.33.33 0 0 0-.114.146.6.6 0 0 0-.04.223q0 .13.04.227a.34.34 0 0 0 .112.149q.074.052.174.052a.3.3 0 0 0 .12-.024.25.25 0 0 0 .093-.072.3.3 0 0 0 .052-.111h.229a.438.438 0 0 1-.246.353.55.55 0 0 1-.25.053m1.254 0a.524.524 0 0 1-.492-.295.7.7 0 0 1-.07-.327.7.7 0 0 1 .07-.328.52.52 0 0 1 .492-.296q.17 0 .296.078.127.078.196.218a.7.7 0 0 1 .07.328.7.7 0 0 1-.07.327.52.52 0 0 1-.492.295m.001-.197q.11 0 .182-.058a.34.34 0 0 0 .107-.155.6.6 0 0 0 .035-.213.6.6 0 0 0-.035-.212.35.35 0 0 0-.107-.156.28.28 0 0 0-.182-.059.28.28 0 0 0-.184.06.35.35 0 0 0-.107.155.6.6 0 0 0-.035.212q0 .117.035.213t.107.155.184.058m1.058-.543v.715h-.235V2.24h.225v.196h.015a.34.34 0 0 1 .13-.154.4.4 0 0 1 .226-.058q.123 0 .216.052.092.051.143.152t.051.25v.767h-.235v-.738a.3.3 0 0 0-.068-.205.24.24 0 0 0-.187-.075.3.3 0 0 0-.146.036.25.25 0 0 0-.1.103.34.34 0 0 0-.035.164m1.649-.49v.188h-.659V2.24zm-.482-.289h.234v1.14q0 .069.02.103a.1.1 0 0 0 .053.046.2.2 0 0 0 .072.012.3.3 0 0 0 .05-.004l.032-.006.043.194a.459.459 0 0 1-.325-.008.3.3 0 0 1-.13-.107.3.3 0 0 1-.05-.181zm.741 1.494V2.24h.227v.191h.013a.3.3 0 0 1 .116-.153.33.33 0 0 1 .19-.056 1 1 0 0 1 .1.005v.225l-.051-.009a1 1 0 0 0-.072-.005.3.3 0 0 0-.149.035.26.26 0 0 0-.14.236v.736zm1.313.025a.524.524 0 0 1-.492-.295.7.7 0 0 1-.07-.327.7.7 0 0 1 .07-.328.52.52 0 0 1 .492-.296q.17 0 .296.078.127.078.196.218.07.14.07.328a.7.7 0 0 1-.07.327.52.52 0 0 1-.492.295m0-.197q.111 0 .183-.058a.34.34 0 0 0 .107-.155.6.6 0 0 0 .035-.213.6.6 0 0 0-.036-.212.35.35 0 0 0-.106-.156.28.28 0 0 0-.182-.059.28.28 0 0 0-.184.06.35.35 0 0 0-.107.155.6.6 0 0 0-.035.212q0 .117.034.213.036.096.108.155t.184.058m1.144-1.784v1.956h-.286V1.49z"/></svg>