<?xml version="1.0" encoding="UTF-8"?>
<svg version="1.1" xmlns="http://www.w3.org/2000/svg" width="100" height="100">
<path d="M0 0 C1.87365234 0.35578125 1.87365234 0.35578125 3.78515625 0.71875 C4.86667969 0.9765625 5.94820312 1.234375 7.0625 1.5 C8.16722656 1.7578125 9.27195312 2.015625 10.41015625 2.28125 C13 3 13 3 14 4 C14.07244053 6.01964199 14.08377188 8.04167124 14.0625 10.0625 C14.05347656 11.16722656 14.04445313 12.27195312 14.03515625 13.41015625 C14.02355469 14.26480469 14.01195313 15.11945312 14 16 C14.98742187 16.19335938 15.97484375 16.38671875 16.9921875 16.5859375 C18.27351563 16.84632812 19.55484375 17.10671875 20.875 17.375 C22.15117188 17.63023438 23.42734375 17.88546875 24.7421875 18.1484375 C28 19 28 19 30 21 C30.1953125 23.1640625 30.1953125 23.1640625 30.125 25.625 C30.10695313 26.44226563 30.08890625 27.25953125 30.0703125 28.1015625 C30.04710938 28.72804688 30.02390625 29.35453125 30 30 C30.63808594 30.20496094 31.27617188 30.40992187 31.93359375 30.62109375 C32.75988281 30.89050781 33.58617188 31.15992188 34.4375 31.4375 C35.26121094 31.70433594 36.08492188 31.97117188 36.93359375 32.24609375 C39 33 39 33 40 34 C40.37890625 36.109375 40.37890625 36.109375 40.5625 38.75 C40.68818359 40.04164062 40.68818359 40.04164062 40.81640625 41.359375 C39.46994202 45.71444592 35.86436749 46.9398505 32 49 C31.21729736 49.44408203 30.43459473 49.88816406 29.62817383 50.34570312 C27.14994893 51.73639391 24.6439004 53.0596171 22.125 54.375 C21.29097656 54.83777344 20.45695312 55.30054688 19.59765625 55.77734375 C13.31027791 59.03278694 8.8949302 59.4262337 2 58 C0.80890625 57.77441406 -0.3821875 57.54882812 -1.609375 57.31640625 C-2.64578125 57.06761719 -3.6821875 56.81882813 -4.75 56.5625 C-5.79671875 56.31628906 -6.8434375 56.07007813 -7.921875 55.81640625 C-9.88391475 55.29601754 -11.83201086 54.71720482 -13.75390625 54.06396484 C-17.14933944 52.95105135 -20.55249342 52.0393837 -24.015625 51.16015625 C-24.99943146 50.90872108 -24.99943146 50.90872108 -26.00311279 50.65220642 C-28.08488738 50.1202341 -30.16734759 49.59102445 -32.25 49.0625 C-40.88425813 46.87100735 -49.49818666 44.67174439 -58 42 C-58.505322 38.13817991 -58.88371203 34.83467897 -58 31 C-54.80690375 27.93994942 -50.56514213 25 -46 25 C-45.67 24.01 -45.34 23.02 -45 22 C-42.39757586 20.35179805 -41.13751221 20 -38 20 C-38 17.69 -38 15.38 -38 13 C-34.21146011 10.95615215 -30.40738891 8.94590923 -26.58642578 6.96362305 C-25.29210013 6.2864945 -24.00223019 5.60077074 -22.71728516 4.90600586 C-14.99857623 0.74078181 -8.90367373 -2.31153068 0 0 Z " fill="#00AFFE" transform="translate(59,21)"/>
<path d="M0 0 C1.89105469 0.37318359 1.89105469 0.37318359 3.8203125 0.75390625 C4.91085938 1.02074219 6.00140625 1.28757812 7.125 1.5625 C8.24132812 1.83191406 9.35765625 2.10132813 10.5078125 2.37890625 C11.33023438 2.58386719 12.15265625 2.78882813 13 3 C13 6.96 13 10.92 13 15 C9.08397478 15.67063429 5.16726225 16.33666497 1.25 17 C0.13882813 17.19078125 -0.97234375 17.3815625 -2.1171875 17.578125 C-3.18710937 17.75859375 -4.25703125 17.9390625 -5.359375 18.125 C-6.34389648 18.29257812 -7.32841797 18.46015625 -8.34277344 18.6328125 C-11 19 -11 19 -15 19 C-14.95875 20.11375 -14.9175 21.2275 -14.875 22.375 C-15 26 -15 26 -17 28 C-23.04055769 28.26317782 -28.51302024 26.29455517 -34 24 C-33.67 23.34 -33.34 22.68 -33 22 C-34.32 22 -35.64 22 -37 22 C-37.48828125 16.140625 -37.48828125 16.140625 -37 14 C-32.69567893 9.57762793 -26.74446376 6.98534336 -21.3125 4.1875 C-19.89807617 3.4150293 -19.89807617 3.4150293 -18.45507812 2.62695312 C-11.81941403 -0.77981051 -7.2778657 -1.60682177 0 0 Z " fill="#00DCFF" transform="translate(59,21)"/>
<path d="M0 0 C0.08086147 1.79093191 0.13912702 3.58289628 0.1875 5.375 C0.23970703 6.87160156 0.23970703 6.87160156 0.29296875 8.3984375 C0.19628906 9.25695313 0.09960938 10.11546875 0 11 C-2.99801044 12.99867362 -4.29451484 13.37738075 -7.74609375 13.8515625 C-9.12571289 14.04492188 -9.12571289 14.04492188 -10.53320312 14.2421875 C-11.49162109 14.36851563 -12.45003906 14.49484375 -13.4375 14.625 C-14.39205078 14.7590625 -15.34660156 14.893125 -16.33007812 15.03125 C-20.28170278 15.5732503 -24.00120469 16 -28 16 C-28 17.98 -28 19.96 -28 22 C-28.928125 22.144375 -29.85625 22.28875 -30.8125 22.4375 C-34.00725111 22.92100111 -34.00725111 22.92100111 -37 24 C-39.84765625 23.51171875 -39.84765625 23.51171875 -43.0625 22.6875 C-44.12597656 22.42324219 -45.18945312 22.15898438 -46.28515625 21.88671875 C-49 21 -49 21 -51 19 C-51.1875 15.4375 -51.1875 15.4375 -51 12 C-49.46386666 10.46386666 -47.75277915 10.60999134 -45.625 10.2890625 C-38.43908951 8.91167781 -32.53502587 5.35540665 -26.2109375 1.8125 C-17.01437681 -3.0836971 -9.82895745 -2.91228369 0 0 Z " fill="#00EAFF" transform="translate(87,40)"/>
<path d="M0 0 C0 1.32 0 2.64 0 4 C0.67546875 4.09796875 1.3509375 4.1959375 2.046875 4.296875 C9.29244538 5.51145038 9.29244538 5.51145038 12.625 7.8125 C14.27506713 10.43760679 14.1105469 11.95996017 14 15 C6.57106587 16.31191816 1.04984516 15.65494169 -6 13 C-3.91571791 15.08428209 -0.68205435 15.87841364 2 17 C2 18.98 2 20.96 2 23 C-1.71599191 23.20086443 -2.77208445 23.1519437 -6 21 C-8.28648848 20.75892674 -8.28648848 20.75892674 -10.6875 20.875 C-11.89986328 20.90207031 -11.89986328 20.90207031 -13.13671875 20.9296875 C-13.75160156 20.95289062 -14.36648437 20.97609375 -15 21 C-15 20.34 -15 19.68 -15 19 C-16.32 18.67 -17.64 18.34 -19 18 C-19.31716418 11.02238806 -19.31716418 11.02238806 -17 8 C-11.27586207 4 -11.27586207 4 -8 4 C-7.67 3.01 -7.34 2.02 -7 1 C-4.53721199 -0.231394 -2.7204945 -0.07159196 0 0 Z " fill="#00CEFF" transform="translate(21,42)"/>
<path d="M0 0 C0.99 0.33 1.98 0.66 3 1 C3.21756982 2.55622858 3.37196528 4.12136107 3.5 5.6875 C3.5928125 6.55761719 3.685625 7.42773438 3.78125 8.32421875 C2.68620325 12.07475386 0.69574268 12.87302584 -2.62011719 14.73461914 C-3.40547852 15.15219482 -4.19083984 15.56977051 -5 16 C-5.7827832 16.44400146 -6.56556641 16.88800293 -7.37207031 17.34545898 C-9.85012101 18.73644027 -12.35610904 20.05962203 -14.875 21.375 C-15.70902344 21.83777344 -16.54304688 22.30054687 -17.40234375 22.77734375 C-23.51247542 25.94101316 -28.27467105 26.74524577 -35 25 C-36.32 24.34 -37.64 23.68 -39 23 C-35.04 23 -31.08 23 -27 23 C-27.165 21.948125 -27.33 20.89625 -27.5 19.8125 C-27 16 -27 16 -25.55273438 14.72070312 C-24.90626953 14.34880859 -24.25980469 13.97691406 -23.59375 13.59375 C-22.86736328 13.17134033 -22.14097656 12.74893066 -21.39257812 12.3137207 C-17.2847928 10.05821123 -13.16048621 7.8444341 -9 5.6875 C-8.12988281 5.23310547 -7.25976562 4.77871094 -6.36328125 4.31054688 C-4.24366512 3.20415384 -2.12257557 2.10070155 0 1 C0 0.67 0 0.34 0 0 Z " fill="#00ACFF" transform="translate(96,54)"/>
<path d="M0 0 C0.66 0.33 1.32 0.66 2 1 C2.21784569 2.38876626 2.37211181 3.78758104 2.5 5.1875 C2.5928125 5.96480469 2.685625 6.74210937 2.78125 7.54296875 C1.45135841 11.7254778 -2.2868518 13.00883093 -6 15 C-7.18215088 15.65899292 -7.18215088 15.65899292 -8.38818359 16.33129883 C-10.88462507 17.70033918 -13.40538835 19.01076705 -15.9375 20.3125 C-17.20110352 20.9940918 -17.20110352 20.9940918 -18.49023438 21.68945312 C-24.32359975 24.67574102 -28.45343755 25.49545125 -35 25 C-35 23.68 -35 22.36 -35 21 C-32.69 21 -30.38 21 -28 21 C-28 19.02 -28 17.04 -28 15 C-22.36868057 13.4740529 -16.92399064 12.5224859 -11.125 11.9375 C-5.90414111 11.58031061 -5.90414111 11.58031061 -1 10 C-0.53248212 7.64400765 -0.53248212 7.64400765 -0.375 4.9375 C-0.30023438 4.01839844 -0.22546875 3.09929688 -0.1484375 2.15234375 C-0.09945312 1.44207031 -0.05046875 0.73179688 0 0 Z " fill="#0078FE" transform="translate(87,41)"/>
<path d="M0 0 C6.12347109 0.7310026 12.11936382 2.17046874 18 4 C18 4.66 18 5.32 18 6 C19.32 6 20.64 6 22 6 C22 7.65 22 9.3 22 11 C21.071875 11.144375 20.14375 11.28875 19.1875 11.4375 C15.99274889 11.92100111 15.99274889 11.92100111 13 13 C10.15234375 12.51171875 10.15234375 12.51171875 6.9375 11.6875 C5.87402344 11.42324219 4.81054688 11.15898438 3.71484375 10.88671875 C1 10 1 10 -1 8 C-1.1875 4.4375 -1.1875 4.4375 -1 1 C-0.67 0.67 -0.34 0.34 0 0 Z " fill="#00D3FF" transform="translate(37,51)"/>
<path d="M0 0 C7.30645606 1.05084393 14.06392339 2.45677191 21 5 C21.04254356 6.99954746 21.04080783 9.00041636 21 11 C20.67 11.33 20.34 11.66 20 12 C17.50427272 11.93517591 15.04977139 11.80873196 12.5625 11.625 C11.86833984 11.58117187 11.17417969 11.53734375 10.45898438 11.4921875 C5.25957888 11.12978944 5.25957888 11.12978944 3 10 C3 9.34 3 8.68 3 8 C1.68 7.67 0.36 7.34 -1 7 C-0.67 4.69 -0.34 2.38 0 0 Z " fill="#00CEFF" transform="translate(25,59)"/>
<path d="M0 0 C0.33 0 0.66 0 1 0 C1.21756982 1.55622858 1.37196528 3.12136107 1.5 4.6875 C1.5928125 5.55761719 1.685625 6.42773438 1.78125 7.32421875 C0.68620325 11.07475386 -1.30425732 11.87302584 -4.62011719 13.73461914 C-5.40547852 14.15219482 -6.19083984 14.56977051 -7 15 C-7.7827832 15.44400146 -8.56556641 15.88800293 -9.37207031 16.34545898 C-11.85012101 17.73644027 -14.35610904 19.05962203 -16.875 20.375 C-17.70902344 20.83777344 -18.54304688 21.30054687 -19.40234375 21.77734375 C-25.51247542 24.94101316 -30.27467105 25.74524577 -37 24 C-38.32 23.34 -39.64 22.68 -41 22 C-37.04 22 -33.08 22 -29 22 C-29 20.02 -29 18.04 -29 16 C-23.93164156 14.41655207 -19.0844887 13.50677577 -13.8125 12.9375 C-7.84525435 12.31054341 -7.84525435 12.31054341 -2 11 C-2 10.34 -2 9.68 -2 9 C-1.34 9 -0.68 9 0 9 C0 6.03 0 3.06 0 0 Z " fill="#0084FF" transform="translate(98,55)"/>
<path d="M0 0 C4.29 0.33 8.58 0.66 13 1 C13 1.66 13 2.32 13 3 C14.3921875 3.185625 14.3921875 3.185625 15.8125 3.375 C19 4 19 4 22 6 C22 7.98 22 9.96 22 12 C18.04 12 14.08 12 10 12 C10.99 11.34 11.98 10.68 13 10 C10.36 10 7.72 10 5 10 C4.67 9.34 4.34 8.68 4 8 C1.97536745 7.34786708 1.97536745 7.34786708 0 7 C0 4.69 0 2.38 0 0 Z " fill="#00D0FF" transform="translate(47,65)"/>
<path d="M0 0 C0.66 0 1.32 0 2 0 C2.08086147 1.79093191 2.13912702 3.58289628 2.1875 5.375 C2.23970703 6.87160156 2.23970703 6.87160156 2.29296875 8.3984375 C2.19628906 9.25695313 2.09960938 10.11546875 2 11 C-0.98510004 12.99006669 -2.31027545 13.38862577 -5.74609375 13.88671875 C-6.66583984 14.02013672 -7.58558594 14.15355469 -8.53320312 14.29101562 C-9.49162109 14.42185547 -10.45003906 14.55269531 -11.4375 14.6875 C-12.86932617 14.90116211 -12.86932617 14.90116211 -14.33007812 15.11914062 C-15.71163086 15.3134668 -15.71163086 15.3134668 -17.12109375 15.51171875 C-17.9608374 15.62990967 -18.80058105 15.74810059 -19.66577148 15.86987305 C-22 16 -22 16 -26 15 C-17.42 10.71 -8.84 6.42 0 2 C0 1.34 0 0.68 0 0 Z " fill="#00AEFF" transform="translate(85,40)"/>
<path d="M0 0 C0.33 0 0.66 0 1 0 C1 3.96 1 7.92 1 12 C1.66 12.33 2.32 12.66 3 13 C2.07574219 12.88527344 1.15148437 12.77054688 0.19921875 12.65234375 C-5.5491135 12.6508969 -10.27025051 15.88717738 -15.1875 18.5625 C-17.13344529 19.61639441 -19.08507248 20.65988374 -21.04296875 21.69140625 C-22.32723755 22.39052124 -22.32723755 22.39052124 -23.63745117 23.10375977 C-26.28232983 24.1071027 -27.39817692 23.99179707 -30 23 C-29.67 22.67 -29.34 22.34 -29 22 C-28.63239269 19.67182036 -28.29758419 17.3381615 -28 15 C-24.45995797 14.3245086 -20.91773831 13.66119202 -17.375 13 C-16.37597656 12.80921875 -15.37695312 12.6184375 -14.34765625 12.421875 C-9.50947407 11.52472864 -4.94607582 10.72990712 0 11 C0 7.37 0 3.74 0 0 Z " fill="#0088FF" transform="translate(72,25)"/>
<path d="M0 0 C1.32 0 2.64 0 4 0 C4 3.96 4 7.92 4 12 C0.06387896 12.69636765 -3.87355825 13.38244339 -7.8125 14.0625 C-8.93205078 14.26166016 -10.05160156 14.46082031 -11.20507812 14.66601562 C-12.81479492 14.94155273 -12.81479492 14.94155273 -14.45703125 15.22265625 C-15.9416687 15.48187866 -15.9416687 15.48187866 -17.45629883 15.74633789 C-20 16 -20 16 -23 15 C-19.04490505 12.99354751 -15.08540979 10.99593864 -11.125 9 C-9.99707031 8.42765625 -8.86914062 7.8553125 -7.70703125 7.265625 C-6.09248047 6.45351563 -6.09248047 6.45351563 -4.4453125 5.625 C-3.45031738 5.12226563 -2.45532227 4.61953125 -1.43017578 4.1015625 C1 3 1 3 3 3 C3 2.34 3 1.68 3 1 C2.01 0.67 1.02 0.34 0 0 Z " fill="#00BCFF" transform="translate(68,24)"/>
<path d="M0 0 C0.33 0 0.66 0 1 0 C1.21756982 1.55622858 1.37196528 3.12136107 1.5 4.6875 C1.5928125 5.55761719 1.685625 6.42773438 1.78125 7.32421875 C0.68620325 11.07475386 -1.30425732 11.87302584 -4.62011719 13.73461914 C-5.40547852 14.15219482 -6.19083984 14.56977051 -7 15 C-7.7827832 15.44400146 -8.56556641 15.88800293 -9.37207031 16.34545898 C-11.85012101 17.73644027 -14.35610904 19.05962203 -16.875 20.375 C-17.70902344 20.83777344 -18.54304688 21.30054687 -19.40234375 21.77734375 C-25.51247542 24.94101316 -30.27467105 25.74524577 -37 24 C-38.3533115 23.37488385 -39.694326 22.71933138 -41 22 C-40.00484375 22.04382813 -39.0096875 22.08765625 -37.984375 22.1328125 C-25.47741891 22.25250354 -16.52321451 18.05739683 -5.79321289 11.90209961 C-4 11 -4 11 -2 11 C-2 10.34 -2 9.68 -2 9 C-1.34 9 -0.68 9 0 9 C0 6.03 0 3.06 0 0 Z " fill="#001CFF" transform="translate(98,55)"/>
<path d="M0 0 C0.66 0.33 1.32 0.66 2 1 C-1.32406393 4.74483152 -4.94834219 6.88215202 -9.3125 9.1875 C-9.95123047 9.54263672 -10.58996094 9.89777344 -11.24804688 10.26367188 C-15.5485059 12.55986428 -19.1403822 13.57879121 -24 14 C-21.30760036 11.10230007 -18.83407482 9.16131252 -15.3046875 7.38671875 C-14.42425781 6.94392578 -13.54382813 6.50113281 -12.63671875 6.04492188 C-11.26966797 5.37299805 -11.26966797 5.37299805 -9.875 4.6875 C-8.95589844 4.22021484 -8.03679687 3.75292969 -7.08984375 3.27148438 C-6.21199219 2.83513672 -5.33414063 2.39878906 -4.4296875 1.94921875 C-3.62772949 1.55049561 -2.82577148 1.15177246 -1.99951172 0.7409668 C-1.33967285 0.49644775 -0.67983398 0.25192871 0 0 Z " fill="#00C1FF" transform="translate(93,57)"/>
<path d="M0 0 C0.66 0.33 1.32 0.66 2 1 C1.34 3.64 0.68 6.28 0 9 C1.98 9 3.96 9 6 9 C5.01 9.495 5.01 9.495 4 10 C4 10.66 4 11.32 4 12 C4.61488281 11.90460937 5.22976562 11.80921875 5.86328125 11.7109375 C6.67152344 11.60007812 7.47976563 11.48921875 8.3125 11.375 C9.11300781 11.25898437 9.91351563 11.14296875 10.73828125 11.0234375 C13 11 13 11 16 13 C17.65549531 13.38499891 19.3222433 13.72793135 21 14 C21 14.33 21 14.66 21 15 C13.06714481 15.36801906 6.4654395 14.77476512 -1 12 C-1.02687279 10.18757948 -1.04633715 8.37504767 -1.0625 6.5625 C-1.07410156 5.55316406 -1.08570312 4.54382812 -1.09765625 3.50390625 C-1 1 -1 1 0 0 Z " fill="#008CFF" transform="translate(2,51)"/>
<path d="M0 0 C0.33 0 0.66 0 1 0 C1 1.98 1 3.96 1 6 C2.98 6 4.96 6 7 6 C7 6.33 7 6.66 7 7 C12.28 7.33 17.56 7.66 23 8 C23 8.66 23 9.32 23 10 C22.071875 10.144375 21.14375 10.28875 20.1875 10.4375 C16.99274889 10.92100111 16.99274889 10.92100111 14 12 C11.15234375 11.51171875 11.15234375 11.51171875 7.9375 10.6875 C6.87402344 10.42324219 5.81054688 10.15898438 4.71484375 9.88671875 C2 9 2 9 0 7 C-0.125 3.375 -0.125 3.375 0 0 Z " fill="#00BEFF" transform="translate(36,52)"/>
<path d="M0 0 C0 0.99 0 1.98 0 3 C-2.49275476 4.32805745 -4.99279848 5.63722261 -7.5 6.9375 C-8.19609375 7.31068359 -8.8921875 7.68386719 -9.609375 8.06835938 C-14.48792792 10.57539351 -18.52375576 11.61148267 -24 12 C-21.35426467 9.92684918 -18.74508203 8.24442998 -15.7421875 6.73828125 C-14.55689453 6.14370117 -14.55689453 6.14370117 -13.34765625 5.53710938 C-12.53167969 5.13298828 -11.71570313 4.72886719 -10.875 4.3125 C-10.05128906 3.89677734 -9.22757813 3.48105469 -8.37890625 3.05273438 C-7.59128906 2.66021484 -6.80367187 2.26769531 -5.9921875 1.86328125 C-5.27401855 1.50532471 -4.55584961 1.14736816 -3.81591797 0.77856445 C-2 0 -2 0 0 0 Z " fill="#00C1FF" transform="translate(83,44)"/>
<path d="M0 0 C-0.875 3.875 -0.875 3.875 -2 5 C-3.9609375 4.94921875 -3.9609375 4.94921875 -6.375 4.6875 C-7.16648437 4.60886719 -7.95796875 4.53023437 -8.7734375 4.44921875 C-11 4 -11 4 -14 2 C-9.07262981 0.02905192 -5.21979128 -0.1799928 0 0 Z " fill="#00B7FF" transform="translate(44,44)"/>
<path d="M0 0 C1.32 0 2.64 0 4 0 C4 3.96 4 7.92 4 12 C-0.455 12.495 -0.455 12.495 -5 13 C-5 12.34 -5 11.68 -5 11 C-4.195625 10.566875 -3.39125 10.13375 -2.5625 9.6875 C0.24282331 8.23212941 0.24282331 8.23212941 0.8125 5.3125 C0.874375 4.549375 0.93625 3.78625 1 3 C1.66 3 2.32 3 3 3 C3 2.34 3 1.68 3 1 C2.01 0.67 1.02 0.34 0 0 Z " fill="#00A9FF" transform="translate(68,24)"/>
<path d="M0 0 C0.66 0.33 1.32 0.66 2 1 C1.01 2.485 1.01 2.485 0 4 C-0.39013716 5.9896995 -0.73202649 7.99019869 -1 10 C0.98 9.67 2.96 9.34 5 9 C3.515 11.475 3.515 11.475 2 14 C0.68 13.67 -0.64 13.34 -2 13 C-2 11.68 -2 10.36 -2 9 C-2.99 8.67 -3.98 8.34 -5 8 C-4.01 8 -3.02 8 -2 8 C-2 5.69 -2 3.38 -2 1 C-1.34 0.67 -0.68 0.34 0 0 Z " fill="#0093FF" transform="translate(23,33)"/>
<path d="M0 0 C1.98 0 3.96 0 6 0 C5.67 0.66 5.34 1.32 5 2 C7.64 2 10.28 2 13 2 C13.33 2.66 13.66 3.32 14 4 C8.58264203 4.93402724 5.19548425 5.20808081 0 3 C0 2.01 0 1.02 0 0 Z " fill="#0079FF" transform="translate(47,72)"/>
<path d="M0 0 C0 1.32 0 2.64 0 4 C-3.96 4 -7.92 4 -12 4 C-7.99899414 0.12023674 -5.51903037 -0.43286513 0 0 Z " fill="#00B9FF" transform="translate(69,73)"/>
<path d="M0 0 C0.33 0 0.66 0 1 0 C1 3.96 1 7.92 1 12 C1.66 12.33 2.32 12.66 3 13 C1.948125 12.95875 0.89625 12.9175 -0.1875 12.875 C-3.74010173 12.99147875 -5.84866641 13.47208068 -9 15 C-9.33 14.01 -9.66 13.02 -10 12 C-6.7 11.67 -3.4 11.34 0 11 C0 7.37 0 3.74 0 0 Z " fill="#006DFF" transform="translate(72,25)"/>
<path d="M0 0 C4.95 0 9.9 0 15 0 C14.67 0.99 14.34 1.98 14 3 C12.41590006 2.88512252 10.83271037 2.75765492 9.25 2.625 C8.36828125 2.55539063 7.4865625 2.48578125 6.578125 2.4140625 C4 2 4 2 0 0 Z " fill="#003DFF" transform="translate(57,77)"/>
<path d="M0 0 C0 0.66 0 1.32 0 2 C0.66 2.33 1.32 2.66 2 3 C-3.05531868 2.22225866 -8.01716284 1.14051606 -13 0 C-13 -0.33 -13 -0.66 -13 -1 C-4.57142857 -2.42857143 -4.57142857 -2.42857143 0 0 Z " fill="#0041FF" transform="translate(28,67)"/>
<path d="M0 0 C1.32 0.66 2.64 1.32 4 2 C3.125 8.875 3.125 8.875 2 10 C0.33382885 10.04063832 -1.33388095 10.042721 -3 10 C-3 9.34 -3 8.68 -3 8 C-1.35 8 0.3 8 2 8 C1.34 5.36 0.68 2.72 0 0 Z " fill="#008BFF" transform="translate(33,49)"/>
<path d="M0 0 C1.3921875 0.2784375 1.3921875 0.2784375 2.8125 0.5625 C3.534375 0.706875 4.25625 0.85125 5 1 C5 1.33 5 1.66 5 2 C0.05 1.67 -4.9 1.34 -10 1 C-10 0.67 -10 0.34 -10 0 C-6.26693207 -0.95993175 -3.72586394 -0.93146599 0 0 Z " fill="#00B5FF" transform="translate(40,69)"/>
<path d="M0 0 C2.64 0 5.28 0 8 0 C8 0.99 8 1.98 8 3 C3.44615385 3.36923077 3.44615385 3.36923077 1.1875 1.5 C0.5996875 0.7575 0.5996875 0.7575 0 0 Z " fill="#00BFFF" transform="translate(15,62)"/>
<path d="M0 0 C0.33 0 0.66 0 1 0 C1 1.98 1 3.96 1 6 C2.98 6 4.96 6 7 6 C5.68 6.99 4.36 7.98 3 9 C2.01 8.34 1.02 7.68 0 7 C-0.1875 3.375 -0.1875 3.375 0 0 Z " fill="#00A8FF" transform="translate(36,52)"/>
<path d="M0 0 C1.32 0 2.64 0 4 0 C4 1.98 4 3.96 4 6 C3.34 6 2.68 6 2 6 C2 6.66 2 7.32 2 8 C1.34 7.67 0.68 7.34 0 7 C0.33 5.68 0.66 4.36 1 3 C1.66 3 2.32 3 3 3 C3 2.34 3 1.68 3 1 C2.01 0.67 1.02 0.34 0 0 Z " fill="#0098FF" transform="translate(68,24)"/>
</svg>
