<svg version="1.2" xmlns="http://www.w3.org/2000/svg" viewBox="0 0 30 33" width="30" height="33">
	<title>image</title>
	<style>
		.s0 { fill: #ffffff } 
	</style>
	<path id="Layer" fill-rule="evenodd" class="s0" d="m29.3 18.8c0 2.2-1.8 4-4 4h-2.5v9.7h-16.3v-9.7h-2.6c-2.1 0-3.9-1.8-3.9-4 0-1.5 0.9-2.9 2.3-3.6l10.7-4.7v-1c-2.2-0.8-3.6-3.1-3.1-5.6 0.3-1.9 1.9-3.5 3.8-3.8 3.1-0.6 5.8 1.8 5.8 4.8h-3.2c0-0.9-0.8-1.6-1.7-1.6-0.9 0-1.6 0.7-1.6 1.6 0 0.9 0.7 1.6 1.6 1.6 0.9 0 1.7 0.7 1.7 1.6v2.4l10.6 4.7c1.5 0.7 2.4 2.1 2.4 3.6zm-3.3 0c0-0.2-0.1-0.5-0.4-0.6l-11-4.9-10.9 4.9c-0.3 0.1-0.4 0.3-0.4 0.6 0 0.4 0.3 0.7 0.6 0.7h2.6v-1.6h16.3v1.6h2.5c0.4 0 0.7-0.3 0.7-0.7z"/>
</svg>