<svg version="1.2" xmlns="http://www.w3.org/2000/svg" viewBox="0 0 31 30" width="31" height="30">
	<title>image</title>
	<style>
		.s0 { fill: #ffffff } 
	</style>
	<path id="Layer" fill-rule="evenodd" class="s0" d="m25.6 25.3c0.2 0.3 0 0.7-0.3 0.9l-5.2 3c-0.4 0.2-0.8 0.1-1-0.2l-2.5-3.2q-1.4 0.2-2.9 0.1l-2.5 3.1c-0.2 0.3-0.6 0.4-1 0.2l-5.2-3c-0.3-0.2-0.4-0.6-0.3-0.9l1.5-3.8q-0.9-1.1-1.5-2.5l-4-0.6c-0.3-0.1-0.6-0.3-0.6-0.7v-6.1c0-0.3 0.3-0.6 0.7-0.7l3.9-0.5c0.2-0.5 0.4-0.9 0.7-1.4 0.2-0.4 0.5-0.8 0.8-1.2l-1.5-3.7c-0.1-0.4 0-0.7 0.3-0.9l5.2-3c0.4-0.2 0.8-0.2 1 0.1l2.5 3.2c1-0.1 1.9-0.1 2.9 0l2.5-3.2c0.3-0.3 0.6-0.4 1-0.2l5.2 3c0.3 0.2 0.5 0.6 0.3 1l-1.5 3.7q0.9 1.2 1.5 2.6l4 0.5c0.3 0.1 0.6 0.4 0.6 0.8v6c0 0.4-0.3 0.7-0.6 0.7l-4 0.6q-0.3 0.7-0.7 1.3-0.4 0.7-0.8 1.2zm-5.5-7.7c1.5-2.7 0.6-6.2-2.1-7.7-2.7-1.6-6.2-0.7-7.7 2-1.6 2.7-0.6 6.2 2 7.7 2.7 1.6 6.2 0.7 7.8-2z"/>
</svg>