<?xml version="1.0" encoding="UTF-8"?>
<svg version="1.1" xmlns="http://www.w3.org/2000/svg" width="100" height="100">
<path d="M0 0 C0.99 0.33 1.98 0.66 3 1 C4.02698582 11.34321431 4.87036359 21.71300024 3 32 C3.66386719 31.37351562 4.32773437 30.74703125 5.01171875 30.1015625 C5.89472656 29.28429687 6.77773437 28.46703125 7.6875 27.625 C8.55761719 26.81289063 9.42773438 26.00078125 10.32421875 25.1640625 C12.86371107 23.11022491 14.92025866 22.0099332 18 21 C18 20.34 18 19.68 18 19 C21.36683915 16.56839395 22.73350364 16 27 16 C23.14578588 32.8929385 23.14578588 32.8929385 19 40 C18.34 40 17.68 40 17 40 C16.5359375 40.928125 16.5359375 40.928125 16.0625 41.875 C15.375 43.25 14.6875 44.625 14 46 C15.82724609 45.96519531 15.82724609 45.96519531 17.69140625 45.9296875 C19.31509799 45.9109165 20.93879642 45.89271773 22.5625 45.875 C23.36236328 45.85824219 24.16222656 45.84148438 24.98632812 45.82421875 C30.06500335 45.78276018 34.18811906 46.35943925 39 48 C38.875 49.8125 38.875 49.8125 38 52 C36.03024489 53.05833113 34.02203546 54.04534162 32 55 C29.38390203 56.35251043 26.78674691 57.74042555 24.1875 59.125 C23.1675293 59.66447266 23.1675293 59.66447266 22.12695312 60.21484375 C18.85800663 61.81192672 18.85800663 61.81192672 16 64 C17.36125 64.86625 17.36125 64.86625 18.75 65.75 C23.90575916 69.31937173 23.90575916 69.31937173 26 72 C25.75 74.25 25.75 74.25 25 76 C24.15953125 75.83242187 23.3190625 75.66484375 22.453125 75.4921875 C18.80294437 74.97191289 15.4325411 75.00943909 11.75 75.125 C3.01042322 75.17651028 -4.48919255 74.29378053 -11 68 C-11.99 70.97 -12.98 73.94 -14 77 C-15.65 76.67 -17.3 76.34 -19 76 C-18.34 72.7 -17.68 69.4 -17 66 C-17.928125 66.495 -17.928125 66.495 -18.875 67 C-25.57634536 69.14443051 -32.45538578 68.43818961 -39 66 C-39.7425 65.525625 -40.485 65.05125 -41.25 64.5625 C-45.53548367 62.1275661 -50.23840084 61.17580645 -55 60 C-55 59.01 -55 58.02 -55 57 C-46.738041 52.59225513 -46.738041 52.59225513 -42 52 C-42.825 51.05125 -43.65 50.1025 -44.5 49.125 C-47 46.25 -47 46.25 -47 44 C-47.99 43.67 -48.98 43.34 -50 43 C-51.53515625 41.22265625 -51.53515625 41.22265625 -53.0625 39.0625 C-54.63658929 36.85557073 -56.07911204 34.92088796 -58 33 C-57.625 30.875 -57.625 30.875 -57 29 C-49.90895291 29.99066099 -44.25056457 31.54946209 -38 35 C-36.34302621 35.69040574 -34.68076231 36.36971413 -33 37 C-33.2165625 36.41734375 -33.433125 35.8346875 -33.65625 35.234375 C-37.26199554 24.61745759 -36.38385361 14.81247886 -34 4 C-27.07771538 6.48215551 -23.53051241 15.96099693 -20.37109375 22.234375 C-17 29.49519231 -17 29.49519231 -17 32 C-16.34 32 -15.68 32 -15 32 C-14.95875 30.7625 -14.9175 29.525 -14.875 28.25 C-13.63545509 17.41671706 -6.49146989 8.36971244 0 0 Z " fill="#00AAFF" transform="translate(59,11)"/>
<path d="M0 0 C0.99 0.33 1.98 0.66 3 1 C4.02698582 11.34321431 4.87036359 21.71300024 3 32 C3.66386719 31.37351562 4.32773437 30.74703125 5.01171875 30.1015625 C5.89472656 29.28429687 6.77773437 28.46703125 7.6875 27.625 C8.55761719 26.81289063 9.42773438 26.00078125 10.32421875 25.1640625 C12.86371107 23.11022491 14.92025866 22.0099332 18 21 C18 20.34 18 19.68 18 19 C21.36683915 16.56839395 22.73350364 16 27 16 C23.14578588 32.8929385 23.14578588 32.8929385 19 40 C18.34 40 17.68 40 17 40 C16.5359375 40.928125 16.5359375 40.928125 16.0625 41.875 C15.375 43.25 14.6875 44.625 14 46 C15.82724609 45.96519531 15.82724609 45.96519531 17.69140625 45.9296875 C19.31509799 45.9109165 20.93879642 45.89271773 22.5625 45.875 C23.36236328 45.85824219 24.16222656 45.84148438 24.98632812 45.82421875 C30.06500335 45.78276018 34.18811906 46.35943925 39 48 C38.875 49.8125 38.875 49.8125 38 52 C36.03024489 53.05833113 34.02203546 54.04534162 32 55 C29.38390203 56.35251043 26.78674691 57.74042555 24.1875 59.125 C23.1675293 59.66447266 23.1675293 59.66447266 22.12695312 60.21484375 C18.85800663 61.81192672 18.85800663 61.81192672 16 64 C17.36125 64.86625 17.36125 64.86625 18.75 65.75 C23.90575916 69.31937173 23.90575916 69.31937173 26 72 C25.75 74.25 25.75 74.25 25 76 C24.15953125 75.83242187 23.3190625 75.66484375 22.453125 75.4921875 C18.80294437 74.97191289 15.4325411 75.00943909 11.75 75.125 C3.01042322 75.17651028 -4.48919255 74.29378053 -11 68 C-11.99 70.97 -12.98 73.94 -14 77 C-15.65 76.67 -17.3 76.34 -19 76 C-18.34 72.7 -17.68 69.4 -17 66 C-17.928125 66.495 -17.928125 66.495 -18.875 67 C-25.57634536 69.14443051 -32.45538578 68.43818961 -39 66 C-39.7425 65.525625 -40.485 65.05125 -41.25 64.5625 C-45.53548367 62.1275661 -50.23840084 61.17580645 -55 60 C-55 59.01 -55 58.02 -55 57 C-46.738041 52.59225513 -46.738041 52.59225513 -42 52 C-42.825 51.05125 -43.65 50.1025 -44.5 49.125 C-47 46.25 -47 46.25 -47 44 C-47.99 43.67 -48.98 43.34 -50 43 C-51.53515625 41.22265625 -51.53515625 41.22265625 -53.0625 39.0625 C-54.63658929 36.85557073 -56.07911204 34.92088796 -58 33 C-57.625 30.875 -57.625 30.875 -57 29 C-49.90895291 29.99066099 -44.25056457 31.54946209 -38 35 C-36.34302621 35.69040574 -34.68076231 36.36971413 -33 37 C-33.2165625 36.41734375 -33.433125 35.8346875 -33.65625 35.234375 C-37.26199554 24.61745759 -36.38385361 14.81247886 -34 4 C-27.07771538 6.48215551 -23.53051241 15.96099693 -20.37109375 22.234375 C-17 29.49519231 -17 29.49519231 -17 32 C-16.34 32 -15.68 32 -15 32 C-14.95875 30.7625 -14.9175 29.525 -14.875 28.25 C-13.63545509 17.41671706 -6.49146989 8.36971244 0 0 Z M0 3 C-2.68429577 6.00641127 -3 6.75589918 -3 11 C-3.99 11.33 -4.98 11.66 -6 12 C-7.06775224 13.96466413 -8.06553465 15.96855359 -9 18 C-9.66 18.99 -10.32 19.98 -11 21 C-11.38154943 23.14573931 -11.38154943 23.14573931 -11.5 25.4375 C-11.7287337 28.81704042 -12.41380868 31.01747038 -14 34 C-14.86723305 37.78428968 -15.02193512 40.2954852 -14 44 C-14.33 44.99 -14.66 45.98 -15 47 C-15.12375 45.9275 -15.2475 44.855 -15.375 43.75 C-15.89643936 40.62136385 -16.40088254 38.66519576 -18 36 C-18.33 36.33 -18.66 36.66 -19 37 C-19.66 33.37 -20.32 29.74 -21 26 C-21.99 26.495 -21.99 26.495 -23 27 C-23.1953125 24.98177083 -23.390625 22.96354167 -23.5859375 20.9453125 C-23.86374749 18.77331755 -23.86374749 18.77331755 -26 17 C-26.33 16.01 -26.66 15.02 -27 14 C-27.66 14 -28.32 14 -29 14 C-29.144375 13.21625 -29.28875 12.4325 -29.4375 11.625 C-29.87798925 9.03578982 -29.87798925 9.03578982 -31 7 C-31.66 7 -32.32 7 -33 7 C-33.1690907 9.06230268 -33.33517133 11.1248523 -33.5 13.1875 C-33.63921875 14.91033203 -33.63921875 14.91033203 -33.78125 16.66796875 C-34.34048808 21.99574318 -34.34048808 21.99574318 -33 27 C-33 27.99 -33 28.98 -33 30 C-32.34 30.33 -31.68 30.66 -31 31 C-31 33 -31 35 -31 37 C-30.01 37.66 -29.02 38.32 -28 39 C-28 39.99 -28 40.98 -28 42 C-28.99 42.66 -29.98 43.32 -31 44 C-31.66 42.68 -32.32 41.36 -33 40 C-33.33 40.33 -33.66 40.66 -34 41 C-34.556875 40.38125 -35.11375 39.7625 -35.6875 39.125 C-38.06645178 36.93893621 -39.96357096 36.01214301 -43 35 C-43.495 35.495 -43.495 35.495 -44 36 C-44.66 35.01 -45.32 34.02 -46 33 C-48.41607417 32.20201782 -48.41607417 32.20201782 -51.125 31.8125 C-52.49011719 31.57466797 -52.49011719 31.57466797 -53.8828125 31.33203125 C-54.93082031 31.16767578 -54.93082031 31.16767578 -56 31 C-54.7260411 33.03833424 -53.38938077 35.03852126 -52 37 C-51.34 37 -50.68 37 -50 37 C-49.7525 37.7425 -49.505 38.485 -49.25 39.25 C-47.9016807 42.21630245 -46.35816151 43.79397794 -44 46 C-43.67 46.66 -43.34 47.32 -43 48 C-41.68 48 -40.36 48 -39 48 C-39.33 48.99 -39.66 49.98 -40 51 C-38.9275 51.433125 -37.855 51.86625 -36.75 52.3125 C-34.49109014 53.2676703 -32.88114193 54.09364575 -30.9375 55.625 C-28.38433533 57.43692332 -26.07167865 57.65094561 -23 58 C-23 58.66 -23 59.32 -23 60 C-23.66386719 59.72285156 -24.32773437 59.44570312 -25.01171875 59.16015625 C-25.89472656 58.79792969 -26.77773438 58.43570313 -27.6875 58.0625 C-28.55761719 57.70285156 -29.42773438 57.34320313 -30.32421875 56.97265625 C-32.88382833 56.04222883 -35.33038661 55.50481616 -38 55 C-38.66 54.67 -39.32 54.34 -40 54 C-42.09065819 54.24610068 -42.09065819 54.24610068 -44.375 54.8125 C-45.14585938 54.98394531 -45.91671875 55.15539062 -46.7109375 55.33203125 C-48.98333277 55.99513635 -50.92223543 56.87573013 -53 58 C-53 58.33 -53 58.66 -53 59 C-46.01466204 60.56901859 -46.01466204 60.56901859 -39 62 C-39 62.66 -39 63.32 -39 64 C-37.906875 64.144375 -36.81375 64.28875 -35.6875 64.4375 C-32 65 -32 65 -29 66 C-24.21609903 66 -19.68422791 64.93684558 -15 64 C-15.66 67.63 -16.32 71.26 -17 75 C-16.34 75 -15.68 75 -15 75 C-14.67 71.7 -14.34 68.4 -14 65 C-11.12296163 66.40506525 -8.3434909 67.76791155 -5.6875 69.5625 C-0.65875645 72.25229306 4.46469698 73.58474933 10 72 C12.77996107 72 15.42492567 72.21297929 18.1875 72.5 C19.08855469 72.5928125 19.98960938 72.685625 20.91796875 72.78125 C21.60503906 72.8534375 22.29210937 72.925625 23 73 C21.20142332 70.4390706 21.20142332 70.4390706 19 68 C18.01 68 17.02 68 16 68 C16 67.34 16 66.68 16 66 C11.05766821 64.02306728 7.22694429 63.91140772 2 64 C1.67 63.67 1.34 63.34 1 63 C1.495 62.01 1.495 62.01 2 61 C2.7425 61.37125 3.485 61.7425 4.25 62.125 C6.91305073 63.30106247 6.91305073 63.30106247 9.0625 62.125 C9.701875 61.75375 10.34125 61.3825 11 61 C12.32 61 13.64 61 15 61 C16.36733028 60.04701223 17.70264493 59.04625409 19 58 C19.99 57.67 20.98 57.34 22 57 C22.969375 56.505 23.93875 56.01 24.9375 55.5 C27.37705731 54.30511479 29.36181839 53.50734262 32 53 C32 52.34 32 51.68 32 51 C33.65 50.67 35.3 50.34 37 50 C37 49.67 37 49.34 37 49 C35.20843648 48.83222817 33.4167455 48.66581706 31.625 48.5 C30.12839844 48.36078125 30.12839844 48.36078125 28.6015625 48.21875 C26.10296264 47.97207053 26.10296264 47.97207053 24 48 C23.21625 47.979375 22.4325 47.95875 21.625 47.9375 C19.18734155 47.99553949 17.3306189 48.34451344 15 49 C14.21625 49.12375 13.4325 49.2475 12.625 49.375 C9.46732736 50.12682682 6.88162219 51.52717088 4 53 C3.34 53 2.68 53 2 53 C2 52.34 2 51.68 2 51 C3.32 51 4.64 51 6 51 C6 50.01 6 49.02 6 48 C6.99 48 7.98 48 9 48 C9 47.34 9 46.68 9 46 C9.99 45.67 10.98 45.34 12 45 C17.37064964 39.54427076 20.82490413 34.57284003 22 27 C22.32496374 25.66460214 22.6578691 24.33110305 23 23 C23.34060811 21.33480481 23.67558396 19.66842534 24 18 C21.46326712 19.3553326 21.46326712 19.3553326 19 21 C19 21.66 19 22.32 19 23 C18.278125 23.2475 17.55625 23.495 16.8125 23.75 C13.68824657 25.13855708 11.48448088 26.65354583 9 29 C8.13034494 31.12946603 8.13034494 31.12946603 8 33 C7.34 32.67 6.68 32.34 6 32 C6 33.65 6 35.3 6 37 C4.68 37 3.36 37 2 37 C-1.18981069 39.67053918 -3.52697634 41.74278702 -4 46 C-4.33 45.01 -4.66 44.02 -5 43 C-4.01810813 41.32260138 -3.01866229 39.65532623 -2 38 C-2.33 37.34 -2.66 36.68 -3 36 C-2.01 35.34 -1.02 34.68 0 34 C0.54642861 31.70935631 0.54642861 31.70935631 0.625 29.125 C0.82464421 25.94019958 1.20145451 23.08470395 2 20 C2.1389784 16.59502909 2.08279674 14.24839022 1 11 C0.87218214 8.32605036 0.95608129 5.67904143 1 3 C0.67 3 0.34 3 0 3 Z " fill="#007CFF" transform="translate(59,11)"/>
<path d="M0 0 C0.66 0.66 1.32 1.32 2 2 C2.99 2.66 3.98 3.32 5 4 C-1.58536585 16.19512195 -1.58536585 16.19512195 -7 18 C-7 18.66 -7 19.32 -7 20 C-7.99 20 -8.98 20 -10 20 C-10 20.99 -10 21.98 -10 23 C-11.32 23 -12.64 23 -14 23 C-14 24.32 -14 25.64 -14 27 C-15.71014819 27.97243721 -17.42106538 28.94355873 -19.13671875 29.90625 C-21.15229612 31.04916651 -21.15229612 31.04916651 -23.5 32.8125 C-26.94284623 34.44785196 -29.35085179 33.78707118 -33 33 C-33 32.01 -33 31.02 -33 30 C-32.67 30.33 -32.34 30.66 -32 31 C-32.02320313 30.37351562 -32.04640625 29.74703125 -32.0703125 29.1015625 C-32.08835938 28.28429687 -32.10640625 27.46703125 -32.125 26.625 C-32.15980469 25.40683594 -32.15980469 25.40683594 -32.1953125 24.1640625 C-32 22 -32 22 -30 20 C-28.71682108 23.84953676 -28.93356363 26.94738135 -29 31 C-28.34 29.02 -27.68 27.04 -27 25 C-26.34 25 -25.68 25 -25 25 C-25.875 29.75 -25.875 29.75 -27 32 C-24.94009522 30.70532323 -24.94009522 30.70532323 -23 29 C-23 28.01 -23 27.02 -23 26 C-21.28300181 23.94439658 -19.5506457 22.04008897 -17.6875 20.125 C-13.22637356 15.42819394 -8.91249799 10.6515671 -4.75 5.6875 C-4.27264404 5.11854004 -3.79528809 4.54958008 -3.3034668 3.96337891 C-2.19986973 2.64429139 -1.09953656 1.32247409 0 0 Z " fill="#009FFF" transform="translate(75,39)"/>
<path d="M0 0 C0.66 0.66 1.32 1.32 2 2 C1.50951854 8.8043155 -0.53570649 15.42313063 -2.27148438 21.99804688 C-3.62181502 27.39543264 -4.21897692 32.21921983 -3.93920898 37.78540039 C-4.03689881 41.34421344 -5.36871843 43.873377 -7 47 C-7.33 47 -7.66 47 -8 47 C-7.98839844 46.31292969 -7.97679687 45.62585938 -7.96484375 44.91796875 C-7.95582031 44.01691406 -7.94679687 43.11585937 -7.9375 42.1875 C-7.92589844 41.29417969 -7.91429687 40.40085938 -7.90234375 39.48046875 C-7.88990033 36.86586209 -7.88990033 36.86586209 -9 34 C-8.7525 32.824375 -8.7525 32.824375 -8.5 31.625 C-7.8226952 29.00547911 -7.8226952 29.00547911 -8.5625 26.4375 C-9 24 -9 24 -8.0859375 22.21484375 C-6.76056334 19.51165256 -6.46052086 17.10447047 -6.0625 14.125 C-5.19757719 8.54045904 -4.09498014 4.09498014 0 0 Z " fill="#00BEFF" transform="translate(53,24)"/>
<path d="M0 0 C1.5 1.3125 1.5 1.3125 3 3 C3 3.99 3 4.98 3 6 C3.66 6 4.32 6 5 6 C5.28875 6.7425 5.5775 7.485 5.875 8.25 C6.90202913 10.92236812 6.90202913 10.92236812 8.125 13 C9.19376273 15.44288623 9.1465693 17.36175261 9 20 C9.66 19.34 10.32 18.68 11 18 C11.66 21.63 12.32 25.26 13 29 C13.66 28.67 14.32 28.34 15 28 C15.06058594 28.56847656 15.12117188 29.13695313 15.18359375 29.72265625 C15.57747019 33.35237914 15.99289857 36.95502429 16.5625 40.5625 C17.0554107 44.43536979 17.06843326 48.09930393 17 52 C15.26355269 48.79863478 14.19598388 45.6017835 13.1640625 42.11328125 C10.68710297 33.9007486 7.93657436 25.78802054 5.1796875 17.66601562 C3.21022556 11.8141853 1.37730647 6.02016215 0 0 Z " fill="#00C1FF" transform="translate(27,19)"/>
<path d="M0 0 C3.79369653 0 4.9897665 0.231137 8.1875 1.875 C9.22970703 2.39707031 9.22970703 2.39707031 10.29296875 2.9296875 C12 4 12 4 13 6 C13.66 5.67 14.32 5.34 15 5 C15.33 6.32 15.66 7.64 16 9 C16.99 9 17.98 9 19 9 C19.33 10.65 19.66 12.3 20 14 C20.66 13.67 21.32 13.34 22 13 C22 13.99 22 14.98 22 16 C22.66 16 23.32 16 24 16 C25.5078125 17.96875 25.5078125 17.96875 27.125 20.5 C27.66382812 21.3353125 28.20265625 22.170625 28.7578125 23.03125 C29.16773437 23.6809375 29.57765625 24.330625 30 25 C29.34 25.33 28.68 25.66 28 26 C27.65710938 25.55011719 27.31421875 25.10023437 26.9609375 24.63671875 C20.30218295 16.45268299 11.71366904 10.23520784 3.0625 4.29296875 C2.051875 3.53628906 1.04125 2.77960937 0 2 C0 1.34 0 0.68 0 0 Z " fill="#00C0FF" transform="translate(12,46)"/>
<path d="M0 0 C7.65106346 -0.21285803 14.62476682 -0.17629832 22 2 C22.66 2.66 23.32 3.32 24 4 C23.67 4.66 23.34 5.32 23 6 C19.58674575 7.01475126 17.37452337 6.97970033 14 6 C12.68 6 11.36 6 10 6 C6.84754403 5.54964915 4.02435991 5.00811997 1 4 C0.3125 1.9375 0.3125 1.9375 0 0 Z " fill="#00A4FF" transform="translate(52,77)"/>
<path d="M0 0 C0.33 0.66 0.66 1.32 1 2 C0.36474424 3.67889021 -0.30686092 5.34416775 -1 7 C-1.36871088 8.65919896 -1.71281674 10.3247643 -2 12 C-3.65614657 12.38218767 -5.32457024 12.71395102 -7 13 C-7.33 12.67 -7.66 12.34 -8 12 C-9.32 12 -10.64 12 -12 12 C-12.33 12.66 -12.66 13.32 -13 14 C-12.43463006 10.72085432 -11.6296988 9.06619192 -9 7 C-8.13375 6.67 -7.2675 6.34 -6.375 6 C-5.59125 5.67 -4.8075 5.34 -4 5 C-3.67 4.01 -3.34 3.02 -3 2 C-2.01 1.34 -1.02 0.68 0 0 Z " fill="#00AFFF" transform="translate(82,29)"/>
<path d="M0 0 C0.61230469 0.14566406 1.22460938 0.29132813 1.85546875 0.44140625 C4.29755789 1.07750597 6.4549479 2.01622625 8.75 3.0625 C9.54921875 3.42472656 10.3484375 3.78695312 11.171875 4.16015625 C11.77515625 4.43730469 12.3784375 4.71445313 13 5 C8.17968055 6.60677315 4.06732692 4.3212065 -0.65234375 2.8125 C-3.8211102 2.04341783 -5.06058623 1.84264693 -8 3 C-11.69418201 4.231394 -14.2056261 3.64432764 -18 3 C-17.67 2.34 -17.34 1.68 -17 1 C-14.69342986 0.24592899 -12.354248 -0.411438 -10 -1 C-9.13375 -1.2475 -8.2675 -1.495 -7.375 -1.75 C-4.37781538 -2.06549312 -2.71126577 -1.25135343 0 0 Z " fill="#00C1FF" transform="translate(24,67)"/>
<path d="M0 0 C2.67927341 4.01891012 2.15601248 6.24161923 2 11 C2.66 9.02 3.32 7.04 4 5 C4.66 5 5.32 5 6 5 C5.125 9.75 5.125 9.75 4 12 C6.05990478 10.70532323 6.05990478 10.70532323 8 9 C8 8.01 8 7.02 8 6 C8.66 5.67 9.32 5.34 10 5 C10 5.66 10 6.32 10 7 C11.32 7.33 12.64 7.66 14 8 C6.48520179 13.87892377 6.48520179 13.87892377 2.84375 14.17578125 C0.9375 13.875 0.9375 13.875 -2 13 C-2 12.01 -2 11.02 -2 10 C-1.67 10.33 -1.34 10.66 -1 11 C-1.01160156 10.37351562 -1.02320313 9.74703125 -1.03515625 9.1015625 C-1.04417969 8.28429687 -1.05320313 7.46703125 -1.0625 6.625 C-1.07410156 5.81289062 -1.08570313 5.00078125 -1.09765625 4.1640625 C-1 2 -1 2 0 0 Z " fill="#0089FF" transform="translate(44,59)"/>
<path d="M0 0 C2.475 0.99 2.475 0.99 5 2 C5 2.66 5 3.32 5 4 C5.45375 4.391875 5.9075 4.78375 6.375 5.1875 C8.71848404 7.80138604 9.17605418 10.64083629 10 14 C8.29115995 12.37660195 6.62553283 10.70680947 5 9 C5 8.34 5 7.68 5 7 C3.68 7 2.36 7 1 7 C0.67 4.69 0.34 2.38 0 0 Z " fill="#008BFF" transform="translate(31,55)"/>
<path d="M0 0 C1.32 0.33 2.64 0.66 4 1 C2.55746343 4.36591866 0.66735273 6.51047079 -2 9 C-2.66 7.68 -3.32 6.36 -4 5 C-2.68 3.35 -1.36 1.7 0 0 Z " fill="#0094FF" transform="translate(64,41)"/>
<path d="M0 0 C0.33 0.66 0.66 1.32 1 2 C0.360625 2.28875 -0.27875 2.5775 -0.9375 2.875 C-3.15206079 3.82823451 -3.15206079 3.82823451 -4 6 C-6.97 5.67 -9.94 5.34 -13 5 C-12.67 4.34 -12.34 3.68 -12 3 C-8.05018922 1.70871571 -4.08666352 0.74302973 0 0 Z " fill="#00AEFF" transform="translate(19,65)"/>
<path d="M0 0 C1.32 0 2.64 0 4 0 C4 0.99 4 1.98 4 3 C2.68 3 1.36 3 0 3 C0 4.32 0 5.64 0 7 C-0.99 7 -1.98 7 -3 7 C-3 6.34 -3 5.68 -3 5 C-2.34 5 -1.68 5 -1 5 C-0.67 3.35 -0.34 1.7 0 0 Z " fill="#0094FF" transform="translate(61,59)"/>
<path d="M0 0 C0.99 0.33 1.98 0.66 3 1 C1.75 3 1.75 3 0 5 C-1.32 5 -2.64 5 -4 5 C-3 2 -3 2 0 0 Z " fill="#00AFFF" transform="translate(70,60)"/>
</svg>
