<svg width="27" height="27" viewBox="0 0 27 27" fill="none" xmlns="http://www.w3.org/2000/svg">
<path d="M5.96631 3.78554C5.98431 4.66754 6.59908 5.53846 7.89231 5.53846H12.0558C11.8852 5.12823 11.6819 4.73234 11.448 4.35462C10.6809 3.11262 9.55662 2.07692 7.89231 2.07692C7.12385 2.07692 6.66 2.33031 6.39 2.61692C6.10031 2.93542 5.94805 3.35539 5.96631 3.78554ZM14.9442 5.53846H19.1077C19.8568 5.53846 20.3289 5.28785 20.6169 4.99015C20.9146 4.68139 21.0766 4.25492 21.0766 3.80769C21.0766 3.36046 20.9146 2.93538 20.6155 2.62523C20.3289 2.32754 19.8568 2.07692 19.1077 2.07692C17.4434 2.07692 16.3191 3.11262 15.552 4.35462C15.3 4.76031 15.0992 5.17154 14.9428 5.53846M25.614 14.5385V23.1923C25.614 24.2019 25.213 25.1702 24.4992 25.8843C23.7855 26.5983 22.8173 26.9996 21.8077 27H5.19231C4.18245 27 3.21394 26.5988 2.49986 25.8848C1.78578 25.1707 1.38462 24.2022 1.38462 23.1923V14.5385H1.03846C0.763044 14.5385 0.498908 14.4291 0.304158 14.2343C0.109409 14.0396 0 13.7754 0 13.5V9.34615C0 8.33629 0.401167 7.36779 1.11525 6.65371C1.82933 5.93963 2.79783 5.53846 3.80769 5.53846H4.32C4.04952 5.00866 3.90231 4.42456 3.88938 3.82985C3.85981 2.85399 4.216 1.90579 4.88077 1.19077C5.59108 0.438923 6.62538 0 7.89231 0C10.5895 0 12.2691 1.73354 13.2148 3.26077C13.3163 3.42692 13.4114 3.59123 13.5 3.75369C13.5886 3.59031 13.6837 3.426 13.7852 3.26077C14.7309 1.73354 16.4105 0 19.1077 0C20.3635 0 21.3937 0.441692 22.1095 1.18246C22.8143 1.91215 23.1535 2.87031 23.1535 3.80769C23.1535 4.39754 23.0192 4.99431 22.7451 5.53846H23.1923C24.2022 5.53846 25.1707 5.93963 25.8848 6.65371C26.5988 7.36779 27 8.33629 27 9.34615V13.5C27 13.7754 26.8906 14.0396 26.6958 14.2343C26.5011 14.4291 26.237 14.5385 25.9615 14.5385H25.614ZM23.5371 14.5385H14.5371V24.9231H21.8077C22.7631 24.9231 23.5385 24.1477 23.5385 23.1923L23.5371 14.5385ZM12.4602 24.9231V14.5385H3.46015V23.1923C3.46015 24.1477 4.23554 24.9231 5.19092 24.9231H12.4602Z" fill="#FFA600"/>
</svg>
