<svg width="31" height="31" viewBox="0 0 31 31" fill="none" xmlns="http://www.w3.org/2000/svg">
<path d="M22.0775 6.35318e-06C20.6654 -0.000551068 19.2733 0.33429 18.0159 0.976968C16.7584 1.61965 15.6716 2.55178 14.8448 3.69666C14.0181 4.84153 13.475 6.16639 13.2603 7.56221C13.0456 8.95802 13.1655 10.3849 13.61 11.7253L0.82527 24.5141C0.29684 25.0429 0 25.7599 0 26.5075C0 27.2551 0.29684 27.9721 0.82527 28.5009L2.49747 30.1732C2.75922 30.4353 3.07006 30.6432 3.41223 30.7851C3.75439 30.927 4.12116 31 4.49156 31C4.86197 31 5.22874 30.927 5.5709 30.7851C5.91306 30.6432 6.2239 30.4353 6.48565 30.1732L19.272 17.3845C20.7983 17.8914 22.4333 17.9761 24.0038 17.6296C25.5744 17.2831 27.022 16.5182 28.1933 15.416C29.3646 14.3139 30.2161 12.9154 30.6575 11.3688C31.099 9.82214 31.1139 8.1849 30.7008 6.63045C30.278 5.03444 28.4087 4.87547 27.4709 5.81337L24.7321 8.55075C24.583 8.70552 24.4046 8.82903 24.2073 8.91405C24.01 8.99907 23.7977 9.04391 23.5829 9.04593C23.368 9.04796 23.1549 9.00713 22.9561 8.92584C22.7572 8.84455 22.5765 8.72442 22.4246 8.57249C22.2726 8.42056 22.1525 8.23986 22.0712 8.04096C21.99 7.84206 21.9491 7.62896 21.9512 7.4141C21.9532 7.19924 21.998 6.98694 22.083 6.78961C22.168 6.59228 22.2915 6.41388 22.4463 6.26483L25.1835 3.52586C26.1213 2.58796 25.9624 0.71853 24.3649 0.295682C23.619 0.0984762 22.8506 -0.000915446 22.0791 6.35318e-06" fill="white"/>
</svg>
