<?xml version="1.0" encoding="UTF-8"?>
<svg version="1.1" xmlns="http://www.w3.org/2000/svg" width="100" height="100">
<path d="M0 0 C1.32 0 2.64 0 4 0 C4 0.99 4 1.98 4 3 C9.445 3.495 9.445 3.495 15 4 C15.90912644 7.63650575 15.91151191 10.25429419 15.6796875 13.93823242 C15.10735048 25.22877252 18.30871438 32.47488553 24 42 C25.17397085 44.01134187 26.3347942 46.0278121 27.47265625 48.05981445 C28.17594271 49.3118345 28.89995612 50.55253888 29.6484375 51.77807617 C32.43639242 56.67435259 32.14521574 59.68731625 31 65 C29.191612 68.20577872 28.53988141 68.82003953 25 70 C19.62470749 70.27767482 14.24971253 70.31345651 8.86791992 70.35009766 C7.08621147 70.36665055 5.30456924 70.39393208 3.52319336 70.43212891 C0.9461037 70.48705714 -1.62943412 70.50879393 -4.20703125 70.5234375 C-4.99785599 70.54610687 -5.78868073 70.56877625 -6.60346985 70.59213257 C-10.52964082 70.57722589 -13.30413633 70.22217447 -16.54956055 67.90478516 C-19 65 -19 65 -19.56420898 61.60644531 C-18.94405804 57.64241687 -17.81969391 54.85398071 -15.97265625 51.296875 C-15.66428329 50.6924054 -15.35591034 50.08793579 -15.03819275 49.46514893 C-14.0594049 47.55300043 -13.06176116 45.65151604 -12.0625 43.75 C-11.07111921 41.83222332 -10.08369115 39.91246389 -9.09751892 37.99200439 C-8.20445121 36.25788499 -7.30181074 34.52870546 -6.39868164 32.79980469 C-4.46893093 28.93693488 -3.87768797 26.15998145 -3.90234375 21.89453125 C-3.90556641 20.91162109 -3.90878906 19.92871094 -3.91210938 18.91601562 C-3.92048828 17.89185547 -3.92886719 16.86769531 -3.9375 15.8125 C-3.94201172 14.77673828 -3.94652344 13.74097656 -3.95117188 12.67382812 C-3.9629599 10.11582734 -3.97941485 7.55794267 -4 5 C-2.68 4.34 -1.36 3.68 0 3 C0 2.01 0 1.02 0 0 Z " fill="#B8DEF8" transform="translate(44,18)"/>
<path d="M0 0 C4.46399089 1.80594503 5.62968414 5.66208171 7.6171875 9.859375 C8.03226563 10.67148438 8.44734375 11.48359375 8.875 12.3203125 C10.54427464 15.73676126 11.75859233 18.2235141 11.6875 22.0625 C10.7421875 24.109375 10.7421875 24.109375 7.7421875 26.109375 C4.8759187 26.31757182 2.10917419 26.41339694 -0.7578125 26.41015625 C-2.00594727 26.41658394 -2.00594727 26.41658394 -3.27929688 26.42314148 C-5.03775116 26.42888193 -6.79622919 26.42938713 -8.5546875 26.42504883 C-11.24780649 26.42188675 -13.93982918 26.44535798 -16.6328125 26.47070312 C-18.34114445 26.47297591 -20.04947935 26.47367971 -21.7578125 26.47265625 C-22.56412109 26.481866 -23.37042969 26.49107574 -24.20117188 26.50056458 C-29.82260597 26.45393291 -29.82260597 26.45393291 -31.96875 24.75480652 C-33.2578125 23.109375 -33.2578125 23.109375 -33.6640625 20.41015625 C-33.143473 16.18036653 -31.71713228 13.04370853 -29.7578125 9.296875 C-29.44328125 8.61689453 -29.12875 7.93691406 -28.8046875 7.23632812 C-27.77218686 5.24479323 -26.83910014 3.70324138 -25.2578125 2.109375 C-22.23096872 1.35653668 -20.27173679 1.06609778 -17.2578125 1.109375 C-16.00097656 1.08875 -14.74414062 1.068125 -13.44921875 1.046875 C-11.65291016 1.0778125 -11.65291016 1.0778125 -9.8203125 1.109375 C-7.6331273 1.14648525 -5.44479719 1.15685364 -3.2578125 1.109375 C-2.2578125 0.109375 -2.2578125 0.109375 0 0 Z " fill="#0068CF" transform="translate(61.2578125,58.890625)"/>
<path d="M0 0 C1.32 0 2.64 0 4 0 C4 0.99 4 1.98 4 3 C9.445 3.495 9.445 3.495 15 4 C15.90912644 7.63650575 15.91151191 10.25429419 15.6796875 13.93823242 C15.10735048 25.22877252 18.30871438 32.47488553 24 42 C25.17397085 44.01134187 26.3347942 46.0278121 27.47265625 48.05981445 C28.17594271 49.3118345 28.89995612 50.55253888 29.6484375 51.77807617 C32.43639242 56.67435259 32.14521574 59.68731625 31 65 C29.191612 68.20577872 28.53988141 68.82003953 25 70 C19.62470749 70.27767482 14.24971253 70.31345651 8.86791992 70.35009766 C7.08621147 70.36665055 5.30456924 70.39393208 3.52319336 70.43212891 C0.9461037 70.48705714 -1.62943412 70.50879393 -4.20703125 70.5234375 C-4.99785599 70.54610687 -5.78868073 70.56877625 -6.60346985 70.59213257 C-10.52964082 70.57722589 -13.30413633 70.22217447 -16.54956055 67.90478516 C-19 65 -19 65 -19.56420898 61.60644531 C-18.94405804 57.64241687 -17.81969391 54.85398071 -15.97265625 51.296875 C-15.66428329 50.6924054 -15.35591034 50.08793579 -15.03819275 49.46514893 C-14.0594049 47.55300043 -13.06176116 45.65151604 -12.0625 43.75 C-11.07111921 41.83222332 -10.08369115 39.91246389 -9.09751892 37.99200439 C-8.20445121 36.25788499 -7.30181074 34.52870546 -6.39868164 32.79980469 C-4.46893093 28.93693488 -3.87768797 26.15998145 -3.90234375 21.89453125 C-3.90556641 20.91162109 -3.90878906 19.92871094 -3.91210938 18.91601562 C-3.92048828 17.89185547 -3.92886719 16.86769531 -3.9375 15.8125 C-3.94201172 14.77673828 -3.94652344 13.74097656 -3.95117188 12.67382812 C-3.9629599 10.11582734 -3.97941485 7.55794267 -4 5 C-2.68 4.34 -1.36 3.68 0 3 C0 2.01 0 1.02 0 0 Z M-1 9 C-1.02578125 10.11117188 -1.0515625 11.22234375 -1.078125 12.3671875 C-1.42698333 22.67067767 -2.75878123 30.56657701 -8.0625 39.5625 C-9.98587391 42.97493759 -11.12640245 46.14877718 -12.2734375 49.8671875 C-13 52 -13 52 -14.6875 55.1875 C-16.20081887 58.43032614 -16.4716381 60.46271425 -16 64 C-15.06356674 65.81452213 -15.06356674 65.81452213 -13 67 C-10.10564454 67.31058538 -7.43089018 67.44417783 -4.53515625 67.43359375 C-3.70543808 67.4388356 -2.87571991 67.44407745 -2.02085876 67.44947815 C-0.26660277 67.45589946 1.48769628 67.4545599 3.24194336 67.44604492 C5.924447 67.43754138 8.60481655 67.46628191 11.28710938 67.49804688 C12.99218686 67.49965917 14.69726812 67.49908081 16.40234375 67.49609375 C17.60406471 67.51294472 17.60406471 67.51294472 18.83006287 67.53013611 C22.46552633 67.48471263 24.57985558 67.31197803 27.53955078 65.11425781 C29.22666413 63.10946343 29.22666413 63.10946343 28.96484375 60.67578125 C27.76850987 57.35801321 26.22007885 54.29072981 24.5625 51.1875 C20.70123135 43.75026863 20.70123135 43.75026863 19.875 39.75 C19.07350285 36.3150122 18.1880952 34.52313835 16.4375 31.5625 C12.70035326 24.56084568 13.0989778 16.75626057 13 9 C8.38 9 3.76 9 -1 9 Z " fill="#76C3ED" transform="translate(44,18)"/>
<path d="M0 0 C1.32 0 2.64 0 4 0 C4 0.99 4 1.98 4 3 C7.63 3.33 11.26 3.66 15 4 C15.90912644 7.63650575 15.91151191 10.25429419 15.6796875 13.93823242 C15.15256237 24.33687381 17.59152442 31.1835327 22.8359375 40.03125 C24.42750036 42.72302074 25.93362607 45.45734745 27.42382812 48.20629883 C28.1223797 49.492312 28.83394798 50.77137084 29.56054688 52.04174805 C31.48446719 55.51264352 32.41978124 58.01957432 32 62 C30.04909226 59.07363839 28.46232491 56.13478178 26.84765625 53.01171875 C26.54685654 52.43090042 26.24605682 51.85008209 25.93614197 51.25166321 C24.97661853 49.39778653 24.01957943 47.54263937 23.0625 45.6875 C22.42267777 44.45109334 21.78270535 43.2147644 21.14257812 41.97851562 C19.42336557 38.65489756 17.70587487 35.33049272 16 32 C15.44328613 30.96705811 14.88657227 29.93411621 14.31298828 28.86987305 C13.07029748 26.15365318 12.6394173 24.62525039 12.70703125 21.6953125 C12.71669922 20.94765625 12.72636719 20.2 12.73632812 19.4296875 C12.76146484 18.66914062 12.78660156 17.90859375 12.8125 17.125 C12.83280273 15.949375 12.83280273 15.949375 12.85351562 14.75 C12.88858211 12.83303218 12.94237928 10.91642249 13 9 C12.16855469 9.01160156 11.33710937 9.02320313 10.48046875 9.03515625 C9.39378906 9.04417969 8.30710937 9.05320312 7.1875 9.0625 C6.10855469 9.07410156 5.02960937 9.08570313 3.91796875 9.09765625 C1 9 1 9 -2 8 C-2 13.28 -2 18.56 -2 24 C-2.33 24 -2.66 24 -3 24 C-3.33 17.73 -3.66 11.46 -4 5 C-2.68 4.34 -1.36 3.68 0 3 C0 2.01 0 1.02 0 0 Z " fill="#43AEF7" transform="translate(44,18)"/>
<path d="M0 0 C1.35158203 0.15275391 1.35158203 0.15275391 2.73046875 0.30859375 C3.41753906 0.39238281 4.10460937 0.47617187 4.8125 0.5625 C4.8125 1.2225 4.8125 1.8825 4.8125 2.5625 C9.4325 2.5625 14.0525 2.5625 18.8125 2.5625 C16.8125 6.5625 16.8125 6.5625 14.8125 7.5625 C11.75689386 7.59327589 8.71434383 7.4951198 5.66015625 7.40234375 C2.60804586 7.33256161 2.60804586 7.33256161 -0.1875 9.5625 C-1.445625 9.3975 -2.70375 9.2325 -4 9.0625 C-6.13356914 8.85578927 -6.13356914 8.85578927 -8.1875 9.5625 C-10.74819347 12.6245503 -12.49034756 15.96247968 -14.1875 19.5625 C-14.5175 18.9025 -14.8475 18.2425 -15.1875 17.5625 C-14.4453125 15.828125 -14.4453125 15.828125 -13.3125 13.8125 C-11.48782513 10.36936353 -10.7284513 7.43931764 -10.1875 3.5625 C-7.2369106 -0.8633841 -4.92093058 -0.5751737 0 0 Z " fill="#1494DC" transform="translate(44.1875,60.4375)"/>
<path d="M0 0 C0.66 0.33 1.32 0.66 2 1 C1.6875 3.375 1.6875 3.375 1 6 C-2.88493162 8.58995441 -6.10567236 8.25225542 -10.60546875 8.1953125 C-11.44467361 8.1924826 -12.28387848 8.18965271 -13.14851379 8.18673706 C-15.82832103 8.17554385 -18.50779381 8.15044101 -21.1875 8.125 C-23.00455246 8.11496908 -24.82161017 8.10584343 -26.63867188 8.09765625 C-31.09257675 8.07560734 -35.54623167 8.04108351 -40 8 C-40 7.34 -40 6.68 -40 6 C-32.6251224 1.93693975 -25.45604854 2.82698119 -17.24804688 3.1171875 C-10.6338138 3.26054234 -6.0665683 2.61110776 0 0 Z " fill="#0051A6" transform="translate(71,77)"/>
<path d="M0 0 C1.32 0 2.64 0 4 0 C4 0.99 4 1.98 4 3 C7.3 3.33 10.6 3.66 14 4 C14 4.33 14 4.66 14 5 C9.38 5.33 4.76 5.66 0 6 C6.93 6.495 6.93 6.495 14 7 C10.74004414 9.17330391 9.77020034 9.24921459 6 9.1875 C5.13375 9.18105469 4.2675 9.17460937 3.375 9.16796875 C1 9 1 9 -2 8 C-2 13.28 -2 18.56 -2 24 C-2.33 24 -2.66 24 -3 24 C-3.33 17.73 -3.66 11.46 -4 5 C-2.68 4.34 -1.36 3.68 0 3 C0 2.01 0 1.02 0 0 Z " fill="#2FAFF6" transform="translate(44,18)"/>
<path d="M0 0 C2.0625 0.4375 2.0625 0.4375 4 1 C4 1.66 4 2.32 4 3 C0.08488397 5.61007735 -3.4519666 5.22006613 -8 5 C-8.66 4.67 -9.32 4.34 -10 4 C-10 3.34 -10 2.68 -10 2 C-9.04287109 1.90912109 -9.04287109 1.90912109 -8.06640625 1.81640625 C-6.82697266 1.69072266 -6.82697266 1.69072266 -5.5625 1.5625 C-4.73878906 1.48128906 -3.91507813 1.40007813 -3.06640625 1.31640625 C-1.01337975 1.21069185 -1.01337975 1.21069185 0 0 Z " fill="#0861B3" transform="translate(59,59)"/>
<path d="M0 0 C0.66 0 1.32 0 2 0 C0.21440518 6.95365789 -2.2558133 12.87314903 -6 19 C-7 17 -7 17 -6.58203125 15.1171875 C-4.76679752 9.82813085 -2.60883993 4.94779987 0 0 Z " fill="#8FCEF1" transform="translate(34,58)"/>
<path d="M0 0 C1.67542976 0.28604898 3.34385343 0.61781233 5 1 C4.67 2.65 4.34 4.3 4 6 C3.01 6.33 2.02 6.66 1 7 C0.34 6.67 -0.32 6.34 -1 6 C-1.042721 4.33388095 -1.04063832 2.66617115 -1 1 C-0.67 0.67 -0.34 0.34 0 0 Z " fill="#71C3FA" transform="translate(52,12)"/>
<path d="M0 0 C2.0625 0.4375 2.0625 0.4375 4 1 C3.67 2.65 3.34 4.3 3 6 C1.35 5.67 -0.3 5.34 -2 5 C-1.125 1.125 -1.125 1.125 0 0 Z " fill="#E4F1FA" transform="translate(55,55)"/>
<path d="M0 0 C1.98 0.495 1.98 0.495 4 1 C3.67 2.32 3.34 3.64 3 5 C1.68 4.67 0.36 4.34 -1 4 C-0.67 2.68 -0.34 1.36 0 0 Z " fill="#E9F5FD" transform="translate(46,46)"/>
<path d="M0 0 C0.66 1.32 1.32 2.64 2 4 C-0.40436026 7.60654039 -1.94679607 7.85452932 -6 9 C-6 8.34 -6 7.68 -6 7 C-5.071875 6.6596875 -5.071875 6.6596875 -4.125 6.3125 C-1.38589791 4.62070165 -0.94975528 3.00755839 0 0 Z " fill="#9ED3F4" transform="translate(73,78)"/>
<path d="M0 0 C2.0625 0.4375 2.0625 0.4375 4 1 C4 1.99 4 2.98 4 4 C3.01 4.33 2.02 4.66 1 5 C0.34 3.68 -0.32 2.36 -1 1 C-0.67 0.67 -0.34 0.34 0 0 Z " fill="#008CDC" transform="translate(59,70)"/>
</svg>
